<?xml version="1.0" encoding="UTF-8"?>
<svg width="22px" height="22px" viewBox="0 0 22 22" version="1.1" xmlns="http://www.w3.org/2000/svg" xmlns:xlink="http://www.w3.org/1999/xlink">
    <title>3.Icons/Outlined/sticker</title>
    <desc>Created with Sketch.</desc>
    <g id="Page-1" stroke="none" stroke-width="1" fill="none" fill-rule="evenodd">
        <g id="1" transform="translate(-32.000000, -302.000000)">
            <g id="3.Icons/Outlined/sticker" transform="translate(30.000000, 300.000000)" fill="#000000" fill-opacity="0.3">
                <g id="Icons/Tint-Color/Black" transform="translate(2.166667, 2.166667)">
                    <path d="M10.8333333,21.6666667 C4.85024854,21.6666667 0,16.8164181 0,10.8333333 C0,4.85024854 4.85024854,0 10.8333333,0 C16.8164181,0 21.6666667,4.85024854 21.6666667,10.8333333 C21.6666667,16.8164181 16.8164181,21.6666667 10.8333333,21.6666667 Z M10.8333333,20.3666667 C16.0984479,20.3666667 20.3666667,16.0984479 20.3666667,10.8333333 C20.3666667,5.56821872 16.0984479,1.3 10.8333333,1.3 C5.56821872,1.3 1.3,5.56821872 1.3,10.8333333 C1.3,16.0984479 5.56821872,20.3666667 10.8333333,20.3666667 Z M4.33333333,11.375 L17.3333333,11.375 C17.3333333,14.9648509 14.4231842,17.875 10.8333333,17.875 C7.24348246,17.875 4.33333333,14.9648509 4.33333333,11.375 Z M10.8333333,16.575 C13.2563246,16.575 15.292255,14.9177954 15.8695106,12.675 L5.79715606,12.675 C6.37441169,14.9177954 8.41034207,16.575 10.8333333,16.575 Z M7.04166667,9.20833333 C6.14420395,9.20833333 5.41666667,8.48079605 5.41666667,7.58333333 C5.41666667,6.68587061 6.14420395,5.95833333 7.04166667,5.95833333 C7.93912939,5.95833333 8.66666667,6.68587061 8.66666667,7.58333333 C8.66666667,8.48079605 7.93912939,9.20833333 7.04166667,9.20833333 Z M14.625,9.20833333 C13.7275373,9.20833333 13,8.48079605 13,7.58333333 C13,6.68587061 13.7275373,5.95833333 14.625,5.95833333 C15.5224627,5.95833333 16.25,6.68587061 16.25,7.58333333 C16.25,8.48079605 15.5224627,9.20833333 14.625,9.20833333 Z" id="图标颜色"></path>
                </g>
            </g>
        </g>
    </g>
</svg>
